<svg width="49" height="50" viewBox="0 0 49 50" fill="none" xmlns="http://www.w3.org/2000/svg">
<path d="M33.8164 7.43451V7.78237L34.1628 7.81444C36.8479 8.06307 38.8004 8.98256 40.132 10.3962C41.4661 11.8125 42.2141 13.7641 42.4132 16.1434L42.4131 16.1434L42.414 16.1522C42.4489 16.4782 42.1587 16.8121 41.7726 16.8121H7.22756C6.86685 16.8121 6.56388 16.5001 6.58722 16.1403C6.78672 13.7624 7.53457 11.8119 8.86811 10.3962C10.1998 8.98256 12.1522 8.06307 14.8373 7.81444L15.1837 7.78237V7.43451V4.24951C15.1837 3.62316 15.707 3.09982 16.3334 3.09982C16.9597 3.09982 17.4831 3.62316 17.4831 4.24951V7.31201V7.69357H17.8646H31.1355H31.517V7.31201V4.24951C31.517 3.62316 32.0404 3.09982 32.6667 3.09982C33.2931 3.09982 33.8164 3.62316 33.8164 4.24951V7.43451Z" stroke="#1565C0" stroke-width="0.763115"/>
<path d="M19.0588 37.6304L19.07 37.6202L19.0805 37.6092C19.5106 37.1552 19.7771 36.5321 19.7771 35.8972C19.7771 35.2623 19.5106 34.6391 19.0805 34.1852L19.07 34.1741L19.0588 34.164C18.8237 33.9524 18.5627 33.7859 18.2765 33.6666C17.6926 33.4233 17.0153 33.4233 16.4313 33.6666C16.1452 33.7859 15.8842 33.9524 15.6491 34.164L15.6378 34.1741L15.6273 34.1852C15.1973 34.6391 14.9307 35.2623 14.9307 35.8972C14.9307 36.5321 15.1973 37.1552 15.6273 37.6092L15.6378 37.6202L15.6491 37.6304C15.8842 37.8419 16.1452 38.0085 16.4313 38.1277C16.7154 38.246 17.0306 38.3204 17.3539 38.3204C17.6772 38.3204 17.9925 38.246 18.2765 38.1277C18.5627 38.0085 18.8237 37.8419 19.0588 37.6304ZM19.5845 29.6739L19.2323 29.5272L19.5845 29.6739C19.7028 29.3899 19.7771 29.0746 19.7771 28.7513C19.7771 28.428 19.7028 28.1128 19.5845 27.8287L19.2323 27.9755L19.5845 27.8287C19.4652 27.5426 19.2987 27.2816 19.0871 27.0465L19.0737 27.0316L19.0588 27.0181C18.8237 26.8066 18.5627 26.64 18.2765 26.5208C17.6926 26.2775 17.0153 26.2775 16.4313 26.5208C16.1452 26.64 15.8842 26.8066 15.6491 27.0181L15.6342 27.0316L15.6207 27.0465C15.4092 27.2816 15.2426 27.5426 15.1234 27.8287C15.005 28.1128 14.9307 28.428 14.9307 28.7513C14.9307 29.0746 15.005 29.3899 15.1234 29.6739C15.2426 29.9601 15.4092 30.2211 15.6207 30.4562L15.6342 30.4711L15.6491 30.4845C15.8842 30.6961 16.1452 30.8626 16.4313 30.9819C16.7154 31.1002 17.0306 31.1746 17.3539 31.1746C17.6772 31.1746 17.9925 31.1002 18.2765 30.9819C18.5627 30.8626 18.8237 30.6961 19.0588 30.4845L19.0737 30.4711L19.0871 30.4562C19.2987 30.2211 19.4652 29.9601 19.5845 29.6739ZM26.2046 30.4845L26.2159 30.4744L26.2263 30.4633C26.6564 30.0094 26.923 29.3862 26.923 28.7513C26.923 28.1164 26.6564 27.4933 26.2263 27.0393L26.2159 27.0283L26.2046 27.0181C25.9712 26.8081 25.7122 26.6424 25.4284 26.5233C24.8409 26.2562 24.1586 26.2562 23.5711 26.5233C23.2873 26.6424 23.0283 26.8081 22.7949 27.0181L22.7836 27.0283L22.7732 27.0393C22.3431 27.4933 22.0765 28.1164 22.0765 28.7513C22.0765 29.3862 22.3431 30.0094 22.7732 30.4633L22.7836 30.4744L22.7949 30.4845C23.03 30.6961 23.291 30.8626 23.5772 30.9819C23.8612 31.1002 24.1765 31.1746 24.4998 31.1746C24.8231 31.1746 25.1383 31.1002 25.4223 30.9819C25.7085 30.8626 25.9695 30.6961 26.2046 30.4845ZM8.16642 20.6396H40.8331C41.7453 20.6396 42.4932 21.3875 42.4932 22.2997V34.8763C42.4932 37.8803 41.7421 40.3254 40.1707 42.0177C38.604 43.705 36.1666 44.7031 32.6664 44.7031H16.3331C12.8329 44.7031 10.3956 43.705 8.82884 42.0177C7.25737 40.3254 6.50631 37.8803 6.50631 34.8763V22.2997C6.50631 21.3875 7.25423 20.6396 8.16642 20.6396Z" stroke="#1565C0" stroke-width="0.763115"/>
<path d="M27.0419 40V40.125H27.1669H28.3544H28.4062L28.4428 40.0883L36.5886 31.9425L36.677 31.8541L36.5886 31.7657L35.4011 30.5782L35.3127 30.4898L35.2244 30.5782L27.0785 38.7241L27.0419 38.7607V38.8125V40ZM38.7831 27.2511L38.783 27.2511L38.7861 27.2542L39.9319 28.4209L39.9318 28.421L39.9366 28.4254C40.0888 28.565 40.1989 28.7288 40.2683 28.918C40.34 29.1134 40.3752 29.3072 40.3752 29.5C40.3752 29.7075 40.3396 29.9043 40.2688 30.091C40.1992 30.2744 40.088 30.4437 39.9327 30.5991L28.9901 41.5416H25.6252V38.1768L36.5866 27.2362C36.7424 27.0937 36.9135 26.9844 37.1001 26.9071C37.2861 26.8302 37.4816 26.7916 37.6877 26.7916C37.8939 26.7916 38.0934 26.8302 38.2872 26.9077C38.4779 26.984 38.6429 27.0981 38.7831 27.2511Z" fill="#1565C0" stroke="white" stroke-width="0.25"/>
</svg>
