<svg width="100" height="23" viewBox="0 0 100 23" fill="none" xmlns="http://www.w3.org/2000/svg">
<g clip-path="url(#clip0_1_634)">
<path d="M13.9013 4.98548C14.1599 4.01947 14.0271 3.01017 13.5268 2.144C12.9451 1.13701 11.963 0.501658 10.8965 0.32392C10.7021 0.291604 10.5053 0.274292 10.3073 0.273138C10.286 0.272561 10.2646 0.272561 10.2433 0.273138C10.05 0.274292 9.85608 0.291027 9.66334 0.32392C9.23399 0.395477 8.81043 0.543783 8.41225 0.773457C6.62391 1.80584 6.00933 4.10027 7.04113 5.8886C7.34871 6.42066 7.76766 6.84884 8.2524 7.16047L8.24894 7.15873L8.39551 7.2655L10.2433 8.33191L10.2998 8.3648L10.3073 8.36943L12.2867 9.51202L12.3438 9.5455L12.6543 9.72438L12.9434 9.89116V7.69253L12.1742 7.24818C13.0311 6.74785 13.644 5.94457 13.9013 4.98548ZM11.3784 5.56832L10.3177 6.21176L10.297 6.20022L10.2433 6.16905L9.64082 5.82167L9.38404 5.67394L9.30439 5.62834C9.2917 5.62027 9.279 5.61277 9.26631 5.60469C9.03317 5.45407 8.83004 5.25037 8.67655 4.99761C8.13352 4.10314 8.42149 2.93689 9.31882 2.39214C9.60908 2.21613 9.92705 2.12668 10.2433 2.11629C10.2646 2.11514 10.286 2.11514 10.3073 2.11514C10.9473 2.11572 11.5705 2.43887 11.9266 3.0246C12.45 3.88675 12.2013 5.00165 11.3784 5.56832Z" fill="#3D3D3D"/>
<path d="M20.0667 13.4684C19.3741 12.2687 18.1132 11.5975 16.8183 11.5975C16.3037 11.5975 15.7836 11.7037 15.292 11.9247L15.2978 11.9201L14.9786 12.069L13.0743 13.1683L12.7465 13.3576L12.3461 13.589L12.2883 13.6219L10.4302 14.6947L12.3351 15.7946L13.0807 15.3641C13.0836 15.9937 13.2445 16.6302 13.581 17.213C14.274 18.4127 15.5355 19.0844 16.8305 19.0844C17.1063 19.0844 17.3839 19.0539 17.658 18.9916C17.6822 18.9864 17.7071 18.9805 17.7313 18.9737C18.0619 18.8917 18.3868 18.7619 18.6962 18.5836C19.0735 18.3659 19.4042 18.0896 19.6788 17.7671C19.9675 17.4276 20.1942 17.037 20.3472 16.6099C20.3824 16.5119 20.4141 16.4114 20.4412 16.3099C20.6998 15.3439 20.567 14.3346 20.0667 13.4684ZM17.7439 17.0104C16.8259 17.5195 15.6705 17.1911 15.1633 16.2758C15.0196 16.0173 14.9434 15.7397 14.9284 15.4627C14.9279 15.4472 14.9279 15.4327 14.9273 15.4177V15.326L14.9261 15.0294L14.9244 14.5464L14.9232 14.2723V14.2486L15.1743 14.1095L16.0081 13.6473C16.9084 13.2133 17.9996 13.5509 18.4884 14.4327C18.9955 15.3479 18.6621 16.5015 17.7439 17.0104Z" fill="#3D3D3D"/>
<path d="M13.5269 17.2434C13.2609 16.7828 12.9106 16.4003 12.5072 16.1037L12.2037 15.8706L10.3069 14.7759L10.2994 14.7712L10.2428 14.7384L8.32118 13.6292L8.28194 13.6061L8.22423 13.5733L7.65639 13.2455V15.4441L8.40543 15.8769C6.62228 16.9111 6.01059 19.202 7.04124 20.988C7.62408 21.9973 8.60913 22.6327 9.67845 22.8093C9.86426 22.8398 10.053 22.8565 10.2428 22.8588C10.259 22.8588 10.2746 22.8588 10.2907 22.8588H10.3069C10.5042 22.8577 10.7027 22.8416 10.8995 22.8086C11.3306 22.7377 11.7565 22.5888 12.1564 22.358C13.0226 21.8577 13.6423 21.0504 13.9014 20.0843C14.16 19.1184 14.0272 18.109 13.5269 17.2429V17.2434ZM11.9261 20.0716C11.8817 20.1449 11.8332 20.2142 11.7807 20.2788C11.7547 20.3111 11.7276 20.3423 11.6993 20.3729C11.689 20.3845 11.678 20.396 11.6676 20.4069C11.6641 20.4104 11.6607 20.4138 11.6566 20.4173C11.6422 20.4317 11.6278 20.4461 11.6128 20.4606C11.5834 20.4884 11.5534 20.5155 11.5222 20.5414C11.491 20.5674 11.4587 20.5921 11.4264 20.6158C11.3612 20.6637 11.2931 20.707 11.2227 20.7457C11.1979 20.7595 11.1725 20.7721 11.1471 20.7849C11.1442 20.7866 11.1413 20.7884 11.1378 20.7895C11.113 20.8017 11.0877 20.8132 11.0623 20.8241C11.0623 20.8241 11.0623 20.8241 11.0611 20.8247C11.0346 20.8362 11.0074 20.8473 10.9809 20.857C10.9797 20.857 10.9792 20.8582 10.978 20.8582C10.9503 20.8686 10.9226 20.8778 10.8943 20.8871C10.8857 20.89 10.8776 20.8927 10.8689 20.8952C10.8585 20.8991 10.8476 20.902 10.8366 20.9049C10.8176 20.9112 10.7985 20.9164 10.7789 20.9211C10.7403 20.9302 10.7022 20.939 10.6635 20.9465C10.6479 20.9494 10.6323 20.9523 10.6168 20.9546C10.5937 20.9591 10.5706 20.9627 10.5469 20.965C10.5308 20.9673 10.5146 20.9684 10.499 20.9702C10.4875 20.9713 10.476 20.9731 10.4638 20.9736C10.4511 20.9754 10.4384 20.9759 10.4258 20.9765C10.4056 20.9781 10.3859 20.9788 10.3657 20.9794C10.3461 20.9799 10.3265 20.9806 10.3069 20.9806C10.2855 20.9806 10.2642 20.9806 10.2428 20.9794C10.2226 20.9788 10.203 20.9776 10.1834 20.9765C10.1638 20.9754 10.1441 20.9736 10.1239 20.9718C10.1043 20.9702 10.0847 20.9679 10.0651 20.965C10.0524 20.9638 10.0403 20.9621 10.0282 20.9598C9.88908 20.9395 9.75116 20.9038 9.6167 20.8507C9.59996 20.8444 9.58322 20.838 9.5665 20.8304C9.55957 20.8276 9.55264 20.8247 9.54514 20.8213C9.5284 20.8143 9.51225 20.8069 9.49551 20.7987C9.43549 20.7705 9.37606 20.7387 9.31835 20.7035C8.42101 20.1588 8.13306 18.9926 8.67608 18.0986C8.82957 17.8453 9.0327 17.6416 9.26584 17.4916C9.27853 17.4835 9.29123 17.4754 9.30392 17.4679L9.38356 17.4218L9.64036 17.2746L9.98025 17.0785L10.2428 16.9272L10.2965 16.896L10.3069 16.8903L10.3173 16.884L10.6554 17.0893L11.3779 17.528C12.2008 18.0945 12.4495 19.2095 11.9261 20.0716Z" fill="#3D3D3D"/>
<path d="M5.62077 11.2153V12.1022C5.05813 11.7768 4.41759 11.6025 3.7678 11.5973H3.69683C3.07475 11.6037 2.44748 11.7652 1.87155 12.0976C0.258071 13.029 -0.400365 14.9882 0.245375 16.6761C0.314623 16.859 0.400031 17.0384 0.50044 17.2128C0.60085 17.3865 0.712802 17.5486 0.836294 17.6998V17.7009C1.07058 17.9889 1.34123 18.236 1.639 18.4361C1.66092 18.4512 1.68344 18.4662 1.70594 18.4806C1.72844 18.4951 1.75095 18.5095 1.77404 18.5238C1.82366 18.555 1.87386 18.5845 1.92465 18.6121C1.92753 18.6139 1.931 18.6157 1.93387 18.6173C1.961 18.6324 1.9887 18.6473 2.01582 18.6611C2.01641 18.6611 2.01641 18.6618 2.01698 18.6618C2.04871 18.6785 2.08103 18.6947 2.11336 18.7103C2.34245 18.8206 2.58136 18.9071 2.8266 18.9688C2.85084 18.9751 2.87508 18.9814 2.89931 18.9866C3.17746 19.0512 3.46254 19.0842 3.74935 19.0842C3.90803 19.0842 4.0673 19.0745 4.226 19.0537C4.2485 19.0508 4.27102 19.0478 4.29352 19.0438L4.30391 19.0422C4.33045 19.0386 4.35699 19.034 4.38412 19.0293C4.80654 18.9566 5.22259 18.8095 5.61501 18.5834C6.4812 18.0831 7.10097 17.2756 7.36006 16.3097C7.40738 16.1336 7.44085 15.9565 7.4622 15.7788L7.52452 15.3673V10.116L5.62021 11.2153H5.62077ZM2.82545 17.0102C1.90733 16.5012 1.57321 15.3477 2.08045 14.4324C2.56923 13.5507 3.66105 13.2131 4.56128 13.6471L5.64616 14.2484V14.272L5.6427 15.0291V15.4175C5.64155 15.4325 5.64097 15.4469 5.6404 15.4625C5.6254 15.7395 5.54921 16.0171 5.40611 16.2756C4.89886 17.1909 3.74357 17.5193 2.82545 17.0102Z" fill="#3D3D3D"/>
<path d="M8.26441 7.341L7.53443 7.76226L7.49 7.78824C7.49057 7.13788 7.32034 6.49559 6.98622 5.91738C6.14368 4.45796 4.4598 3.77991 2.89709 4.14173H2.89653C2.87286 4.1475 2.84862 4.15327 2.82497 4.1602H2.82438C2.49776 4.24213 2.1775 4.37025 1.87164 4.54682C1.46481 4.78169 1.11857 5.08177 0.839269 5.42686C0.588244 5.73502 0.390886 6.07953 0.251235 6.44481C-0.140595 7.46392 -0.0863501 8.6446 0.500529 9.66197C1.19359 10.8617 2.45506 11.5334 3.75 11.5334C4.22204 11.5334 4.69929 11.4434 5.15459 11.2582L5.1644 11.2541C5.1644 11.2541 5.16555 11.2541 5.16672 11.2541L5.62086 11.0666L6.00519 10.845L7.52519 9.96725L7.88933 9.7572L8.22633 9.56272L8.28404 9.52924L10.1682 8.4409L8.26441 7.34158V7.341ZM1.85088 7.8015C1.85088 6.75181 2.698 5.90064 3.74424 5.90064C4.79047 5.90064 5.57701 6.69179 5.63414 7.68898V8.93025L5.61336 8.94122L4.94916 9.30591L4.69005 9.44903L4.60927 9.4929C4.59599 9.49983 4.58329 9.50674 4.56945 9.51367C4.31958 9.63486 4.04028 9.70294 3.74424 9.70294C2.698 9.70294 1.85088 8.85119 1.85088 7.8015Z" fill="#3D3D3D"/>
<path d="M20.3472 6.52486C20.2722 6.31712 20.1782 6.11514 20.0657 5.92009C19.9532 5.72562 19.8261 5.54501 19.6854 5.37881C19.1677 4.76364 18.4765 4.34757 17.7274 4.16119C17.7032 4.15484 17.6789 4.14907 17.6547 4.1433C16.7661 3.94017 15.8011 4.05846 14.9511 4.54955C13.8154 5.2051 13.1541 6.36905 13.0866 7.58955L13.0728 7.76786V9.9665H13.0733V13.0198L14.9777 11.9205V11.0497C15.5184 11.3549 16.1283 11.5217 16.7487 11.535C16.7753 11.535 16.8024 11.5361 16.8295 11.5361C16.8566 11.5361 16.882 11.5361 16.9086 11.535C17.5174 11.5223 18.1313 11.3607 18.6951 11.0352C19.5614 10.5349 20.1812 9.72761 20.4403 8.76158C20.6404 8.01312 20.6058 7.23869 20.3472 6.52486ZM16.8237 9.70337C16.5282 9.70337 16.2484 9.63527 15.9991 9.51408C15.9852 9.50717 15.972 9.50024 15.9587 9.4933L15.8785 9.44946L15.6188 9.30634L14.9552 8.94163L14.9344 8.93067V7.68939C14.9915 6.69222 15.8156 5.90105 16.8237 5.90105C17.8318 5.90105 18.7177 6.75223 18.7177 7.80192C18.7177 8.85162 17.87 9.70337 16.8237 9.70337Z" fill="#3D3D3D"/>
<path d="M32.6529 7.43324V15.3812C32.6529 15.7474 32.3566 16.0437 31.9904 16.0437H31.6941C31.3279 16.0437 31.0316 15.7474 31.0316 15.3812C30.5714 15.9497 29.8274 16.1789 29.1121 16.1789C27.2993 16.1789 26.2993 14.7053 26.2993 12.7053C26.2993 10.5281 27.4748 9.24432 29.1104 9.24432C29.8668 9.24432 30.6108 9.55497 31.0298 10.0554V7.43234C31.0298 6.98473 31.3933 6.62036 31.8418 6.62036C32.2902 6.62036 32.6537 6.98473 32.6537 7.43234L32.6529 7.43324ZM31.1793 12.7197C31.1793 11.6114 30.6789 10.7179 29.5168 10.7179C28.4354 10.7179 27.9224 11.4744 27.9224 12.7197C27.9224 13.9649 28.4229 14.6802 29.5043 14.6802C30.6797 14.6802 31.1802 13.828 31.1802 12.7197H31.1784H31.1793Z" fill="#3D3D3D"/>
<path d="M38.7647 13.2447H34.78C34.8472 14.1238 35.3887 14.704 36.4425 14.704C36.8632 14.704 37.2563 14.6099 37.6134 14.3682C37.8972 14.1758 38.2715 14.1946 38.5293 14.4193C38.8892 14.7362 38.8668 15.3145 38.4702 15.5849C37.8892 15.9815 37.2186 16.1757 36.43 16.1757C34.1319 16.1757 33.1587 14.5258 33.1587 12.7416C33.1587 10.9574 34.105 9.23938 36.3215 9.23938C38.3905 9.23938 39.3905 10.7667 39.3905 12.6189V12.6252C39.3905 12.9663 39.1067 13.2402 38.7647 13.2402V13.2447ZM37.8363 11.9609C37.8095 11.1086 37.1595 10.5957 36.309 10.5957C35.3217 10.5957 34.8615 11.2993 34.7675 11.9609H37.8363Z" fill="#3D3D3D"/>
<path d="M40.436 9.38086H40.4457C40.785 9.38086 41.0894 9.59573 41.2022 9.91622L42.6212 13.9377L44.067 9.91265C44.1816 9.59393 44.4842 9.38086 44.8217 9.38086C45.392 9.38086 45.7787 9.9574 45.5639 10.4847L43.5504 15.4238C43.3974 15.798 43.0331 16.0433 42.6284 16.0433C42.2238 16.0433 41.8594 15.798 41.7063 15.4238L39.6928 10.4847C39.478 9.9574 39.8665 9.38086 40.435 9.38086H40.4368H40.436Z" fill="#3D3D3D"/>
<path d="M46.7235 6.62036H46.9257C47.3384 6.62036 47.6759 6.95608 47.6759 7.37057C47.6759 7.78507 47.3412 8.12078 46.9257 8.12078H46.7235C46.308 8.12078 45.9731 7.78507 45.9731 7.37057C45.9731 6.95608 46.308 6.62036 46.7235 6.62036ZM46.8254 9.37772C47.2731 9.37772 47.6374 9.74208 47.6374 10.1897V15.2308C47.6374 15.6784 47.2731 16.0428 46.8254 16.0428C46.3779 16.0428 46.0144 15.6784 46.0144 15.2308V10.1897C46.0144 9.74208 46.3779 9.37772 46.8254 9.37772Z" fill="#3D3D3D"/>
<path d="M48.1011 12.7327C48.1011 10.9745 49.1413 9.24487 51.3186 9.24487C52.3248 9.24487 53.1663 9.61103 53.7392 10.3693C54.0383 10.7641 53.8699 11.3344 53.4098 11.5161L53.3176 11.5528C52.9845 11.6835 52.6139 11.5528 52.4162 11.2565C52.1663 10.8841 51.7822 10.6656 51.3186 10.6656C50.1959 10.6656 49.7654 11.6799 49.7654 12.7345C49.7654 13.7891 50.1842 14.7623 51.3186 14.7623C51.7725 14.7623 52.161 14.5492 52.4126 14.1857C52.6149 13.893 52.9827 13.7641 53.3141 13.893L53.3472 13.9055C53.8171 14.0872 53.9748 14.6665 53.6722 15.0666C53.1322 15.7801 52.3149 16.1812 51.3337 16.1812C49.1566 16.1812 48.1037 14.4901 48.1037 12.7345L48.1019 12.7327H48.1011Z" fill="#3D3D3D"/>
<path d="M59.7681 13.2447H55.7834C55.8506 14.1238 56.3931 14.704 57.4459 14.704C57.8667 14.704 58.2597 14.6099 58.6178 14.3682C58.9016 14.1758 59.2757 14.1946 59.5335 14.4193C59.8934 14.7362 59.871 15.3145 59.4745 15.5849C58.8934 15.9815 58.223 16.1757 57.4342 16.1757C55.1361 16.1757 54.1631 14.5258 54.1631 12.7416C54.1631 10.9574 55.1094 9.23938 57.3259 9.23938C59.3947 9.23938 60.3947 10.7667 60.3947 12.6189V12.6252C60.3947 12.9663 60.111 13.2402 59.7691 13.2402V13.2447H59.7681ZM58.8397 11.9609C58.8129 11.1086 58.1629 10.5957 57.3124 10.5957C56.3251 10.5957 55.8649 11.2993 55.7709 11.9609H58.8397Z" fill="#3D3D3D"/>
<path d="M63.7276 10.6653V14.0592C63.7276 14.5865 64.0526 14.83 64.5798 14.83C64.6147 14.83 64.6496 14.83 64.6865 14.8255C65.0669 14.8013 65.3901 15.0959 65.3901 15.4755C65.3901 15.7879 65.1672 16.0601 64.8582 16.1173C64.6292 16.1603 64.4026 16.1809 64.1735 16.1809C63.0508 16.1809 62.1045 15.5999 62.1045 14.1791V10.6653H61.3177C60.9639 10.6653 60.6758 10.377 60.6758 10.0234C60.6758 9.66979 60.9639 9.38153 61.3177 9.38153H62.1045V8.25351C62.1045 7.8059 62.468 7.44153 62.9156 7.44153C63.3633 7.44153 63.7276 7.8059 63.7276 8.25351V9.38153H64.7482C65.1018 9.38153 65.3901 9.66979 65.3901 10.0234C65.3901 10.377 65.1018 10.6653 64.7482 10.6653H63.7276Z" fill="#3D3D3D"/>
<path d="M71.9792 11.7439V15.2317C71.9792 15.6793 71.6149 16.0437 71.1672 16.0437C70.7196 16.0437 70.3561 15.6793 70.3561 15.2317V12.1485C70.3561 11.1342 69.9641 10.6624 69.1251 10.6624C68.0581 10.6624 67.6105 11.4601 67.6105 13.3795V15.2317C67.6105 15.6793 67.2461 16.0437 66.7993 16.0437C66.3526 16.0437 65.9873 15.6793 65.9873 15.2317V7.43234C65.9873 6.98473 66.3518 6.62036 66.7993 6.62036C67.247 6.62036 67.6105 6.98473 67.6105 7.43234V10.1369C68.0563 9.55676 68.7474 9.24522 69.6238 9.24522C71.1243 9.24522 71.9766 10.1512 71.9766 11.7456L71.9784 11.7439H71.9792Z" fill="#3D3D3D"/>
<path d="M77.0243 10.4346L77.0002 10.4794C76.839 10.7739 76.5051 10.9145 76.1765 10.8536C76.0825 10.8348 75.9804 10.8268 75.8739 10.8268C74.8864 10.8268 74.4004 11.4355 74.4004 12.6933V15.2341C74.4004 15.6817 74.0359 16.046 73.5892 16.046C73.1426 16.046 72.7773 15.6817 72.7773 15.2341V10.1992C72.7773 9.7471 73.1434 9.38184 73.5947 9.38184C74.0459 9.38184 74.4119 9.74801 74.4119 10.1992V10.5161C74.6959 9.69249 75.4407 9.24487 76.1971 9.24487C76.2588 9.24487 76.3179 9.24487 76.3752 9.25114C76.958 9.29232 77.3054 9.91989 77.0252 10.4329V10.4346H77.0243Z" fill="#3D3D3D"/>
<path d="M82.8365 13.2447H78.8517C78.9189 14.1238 79.4605 14.704 80.5134 14.704C80.935 14.704 81.3272 14.6099 81.6852 14.3682C81.9691 14.1758 82.3433 14.1946 82.6011 14.4193C82.961 14.7362 82.9386 15.3145 82.542 15.5849C81.961 15.9815 81.2904 16.1757 80.5017 16.1757C78.2037 16.1757 77.2305 14.5258 77.2305 12.7416C77.2305 10.9574 78.1767 9.23938 80.3935 9.23938C82.4623 9.23938 83.4623 10.7667 83.4623 12.6189V12.6252C83.4623 12.9663 83.1785 13.2402 82.8365 13.2402V13.2447ZM81.9082 11.9609C81.8813 11.1086 81.2313 10.5957 80.381 10.5957C79.3935 10.5957 78.9332 11.2993 78.8392 11.9609H81.9082Z" fill="#3D3D3D"/>
<path d="M89.7956 11.8421V15.2458C89.7956 15.6872 89.4375 16.0471 88.9945 16.0471C88.5997 16.0471 88.2648 15.7588 88.2031 15.3703L88.1743 15.1823C87.7813 15.8035 87.0258 16.1822 86.1466 16.1822C84.7402 16.1822 83.7402 15.2763 83.7402 14.005C83.7402 13.2199 84.092 12.6272 84.7402 12.3291C85.186 12.1268 85.7545 12.0328 86.51 12.0328H88.1725V11.843C88.1725 11.1134 87.6855 10.6675 86.9157 10.6675C86.4125 10.6675 85.93 10.8636 85.5173 11.2315C85.2622 11.4589 84.8772 11.467 84.6157 11.2477L84.5138 11.1617C84.187 10.886 84.1842 10.381 84.5138 10.1071C85.1985 9.53504 86.0016 9.25037 86.9443 9.25037C88.7026 9.25037 89.7966 10.2378 89.7966 11.8466V11.8421H89.7956ZM88.1743 13.2485H86.7268C86.1725 13.2485 85.8475 13.3157 85.631 13.4777C85.4555 13.6004 85.3605 13.7884 85.3605 14.0319C85.3605 14.5037 85.7535 14.8027 86.401 14.8027C87.374 14.8027 88.1717 14.1142 88.1717 13.2494H88.1735L88.1743 13.2485Z" fill="#3D3D3D"/>
<path d="M96.5325 7.43324V15.3812C96.5325 15.7474 96.2362 16.0437 95.87 16.0437H95.5737C95.2074 16.0437 94.9112 15.7474 94.9112 15.3812C94.451 15.9497 93.7071 16.1789 92.9917 16.1789C91.1807 16.1789 90.1807 14.7053 90.1807 12.7053C90.1807 10.5281 91.3561 9.24432 92.9917 9.24432C93.7482 9.24432 94.4922 9.55497 94.9112 10.0554V7.43234C94.9112 6.98473 95.2755 6.62036 95.7232 6.62036C96.1708 6.62036 96.5325 6.98473 96.5325 7.43234V7.43324ZM95.0589 12.7197C95.0589 11.6114 94.5584 10.7179 93.3964 10.7179C92.3149 10.7179 91.8019 11.4744 91.8019 12.7197C91.8019 13.9649 92.3024 14.6802 93.3839 14.6802C94.5594 14.6802 95.0597 13.828 95.0597 12.7197H95.0579H95.0589Z" fill="#3D3D3D"/>
<path d="M96.7534 4.61235H97.2528V6.11726H97.549V4.61235H98.0521V4.33154H96.7534V4.61235Z" fill="#3D3D3D"/>
<path d="M99.6262 4.33154L99.1058 5.62287L98.5853 4.33154H98.2139V6.11726H98.5376V5.4093L98.5238 4.98018L98.9866 6.11726H99.2249L99.6897 4.97424L99.6778 5.4093V6.11726H99.9996V4.33154H99.6262Z" fill="#3D3D3D"/>
</g>
<defs>
<clipPath id="clip0_1_634">
<rect width="100" height="22.7273" fill="white" transform="translate(0 0.272705)"/>
</clipPath>
</defs>
</svg>
