<svg width="24" height="36" viewBox="0 0 24 36" fill="none" xmlns="http://www.w3.org/2000/svg">
<path fill-rule="evenodd" clip-rule="evenodd" d="M11.6 19.3328L1.6 11.8242C1.2 11.5239 1 11.0734 1 10.4727C1 9.87201 1.2 9.4215 1.5 9.12116L11.5 1.61263C11.8 1.46246 12.1 1.46246 12.4 1.61263L22.4 9.12116C22.8 9.4215 23 9.87201 23 10.4727C23 11.0734 22.8 11.5239 22.4 11.8242L12.4 19.3328C12.3 19.4829 12.2 19.4829 12 19.4829C11.8 19.4829 11.7 19.4829 11.6 19.3328ZM22.5 26.8413C22.9 26.541 23.1 25.6399 22.9 24.8891C22.6 24.1382 22 23.8379 21.7 24.2884L12.1 31.4966L2.5 24.2884C2 23.8379 1.4 24.1382 1.2 24.8891C0.9 25.6399 1.1 26.541 1.6 26.8413L11.6 34.3498C11.7 34.5 11.8 34.5 12 34.5C12.2 34.5 12.3 34.5 12.5 34.3498L22.5 26.8413ZM22.9 17.3805C23.1 18.1314 22.9 19.0324 22.5 19.3328L12.5 26.8413C12.3 26.9915 12.2 26.9915 12 26.9915C11.8 26.9915 11.7 26.9915 11.6 26.8413L1.6 19.3328C1.1 19.0324 0.9 18.1314 1.2 17.3805C1.4 16.6297 2 16.3294 2.5 16.7799L12.1 23.9881L21.7 16.7799C22 16.3294 22.6 16.6297 22.9 17.3805ZM19.8 10.4727L12 4.61604L4.2 10.4727L12 16.3294L19.8 10.4727Z" fill="black"/>
<mask id="mask0_1_217" style="mask-type:luminance" maskUnits="userSpaceOnUse" x="1" y="1" width="22" height="34">
<path fill-rule="evenodd" clip-rule="evenodd" d="M11.6 19.3328L1.6 11.8242C1.2 11.5239 1 11.0734 1 10.4727C1 9.87201 1.2 9.4215 1.5 9.12116L11.5 1.61263C11.8 1.46246 12.1 1.46246 12.4 1.61263L22.4 9.12116C22.8 9.4215 23 9.87201 23 10.4727C23 11.0734 22.8 11.5239 22.4 11.8242L12.4 19.3328C12.3 19.4829 12.2 19.4829 12 19.4829C11.8 19.4829 11.7 19.4829 11.6 19.3328ZM22.5 26.8413C22.9 26.541 23.1 25.6399 22.9 24.8891C22.6 24.1382 22 23.8379 21.7 24.2884L12.1 31.4966L2.5 24.2884C2 23.8379 1.4 24.1382 1.2 24.8891C0.9 25.6399 1.1 26.541 1.6 26.8413L11.6 34.3498C11.7 34.5 11.8 34.5 12 34.5C12.2 34.5 12.3 34.5 12.5 34.3498L22.5 26.8413ZM22.9 17.3805C23.1 18.1314 22.9 19.0324 22.5 19.3328L12.5 26.8413C12.3 26.9915 12.2 26.9915 12 26.9915C11.8 26.9915 11.7 26.9915 11.6 26.8413L1.6 19.3328C1.1 19.0324 0.9 18.1314 1.2 17.3805C1.4 16.6297 2 16.3294 2.5 16.7799L12.1 23.9881L21.7 16.7799C22 16.3294 22.6 16.6297 22.9 17.3805ZM19.8 10.4727L12 4.61604L4.2 10.4727L12 16.3294L19.8 10.4727Z" fill="white"/>
</mask>
<g mask="url(#mask0_1_217)">
<rect width="24" height="36" fill="#1E88E5"/>
</g>
</svg>
