<svg width="20" height="20" viewBox="0 0 20 20" fill="none" xmlns="http://www.w3.org/2000/svg">
<g opacity="0.5">
<path d="M1.6665 13.1667C1.11422 13.1667 0.666504 13.6144 0.666504 14.1667C0.666504 14.719 1.11422 15.1667 1.6665 15.1667V13.1667ZM4.1665 7.50002H3.1665H4.1665ZM15.8332 7.50002H16.8332H15.8332ZM11.4415 17.5L12.3065 18.0018C12.486 17.6924 12.4865 17.3108 12.308 17.0009C12.1295 16.691 11.7991 16.5 11.4415 16.5V17.5ZM8.55817 17.5V16.5C8.20054 16.5 7.87013 16.691 7.69163 17.0009C7.51314 17.3108 7.51372 17.6924 7.69317 18.0018L8.55817 17.5ZM18.3332 13.1667H1.6665V15.1667H18.3332V13.1667ZM1.6665 15.1667C3.5995 15.1667 5.1665 13.5997 5.1665 11.6667H3.1665C3.1665 12.4951 2.49493 13.1667 1.6665 13.1667V15.1667ZM5.1665 11.6667V7.50002H3.1665V11.6667H5.1665ZM5.1665 7.50002C5.1665 4.83064 7.33046 2.66669 9.99984 2.66669V0.666687C6.22589 0.666687 3.1665 3.72607 3.1665 7.50002H5.1665ZM9.99984 2.66669C12.6692 2.66669 14.8332 4.83064 14.8332 7.50002H16.8332C16.8332 3.72607 13.7738 0.666687 9.99984 0.666687V2.66669ZM14.8332 7.50002V11.6667H16.8332V7.50002H14.8332ZM14.8332 11.6667C14.8332 13.5997 16.4002 15.1667 18.3332 15.1667V13.1667C17.5047 13.1667 16.8332 12.4951 16.8332 11.6667H14.8332ZM10.5765 16.9982C10.4572 17.2038 10.2375 17.3304 9.99984 17.3304V19.3304C10.9506 19.3304 11.8294 18.8242 12.3065 18.0018L10.5765 16.9982ZM9.99984 17.3304C9.76215 17.3304 9.54244 17.2038 9.42317 16.9982L7.69317 18.0018C8.17023 18.8242 9.04908 19.3304 9.99984 19.3304V17.3304ZM8.55817 18.5H11.4415V16.5H8.55817V18.5Z" fill="white"/>
</g>
</svg>
