<svg width="20" height="20" viewBox="0 0 20 20" fill="none" xmlns="http://www.w3.org/2000/svg">
<g opacity="0.5" clip-path="url(#clip0_1_240)">
<path d="M16.6665 1.66669H6.6665C5.74567 1.66669 4.99984 2.41252 4.99984 3.33335V13.3334C4.99984 14.2542 5.74567 15 6.6665 15H16.6665C17.5873 15 18.3332 14.2542 18.3332 13.3334V3.33335C18.3332 2.41252 17.5873 1.66669 16.6665 1.66669ZM9.58317 7.91669C9.58317 8.60835 9.02484 9.16669 8.33317 9.16669H7.49984V10.8334H6.24984V5.83335H8.33317C9.02484 5.83335 9.58317 6.39169 9.58317 7.08335V7.91669ZM13.7498 9.58335C13.7498 10.275 13.1915 10.8334 12.4998 10.8334H10.4165V5.83335H12.4998C13.1915 5.83335 13.7498 6.39169 13.7498 7.08335V9.58335ZM17.0832 7.08335H15.8332V7.91669H17.0832V9.16669H15.8332V10.8334H14.5832V5.83335H17.0832V7.08335ZM7.49984 7.91669H8.33317V7.08335H7.49984V7.91669ZM3.33317 5.00002H1.6665V16.6667C1.6665 17.5875 2.41234 18.3334 3.33317 18.3334H14.9998V16.6667H3.33317V5.00002ZM11.6665 9.58335H12.4998V7.08335H11.6665V9.58335Z" fill="white"/>
</g>
<defs>
<clipPath id="clip0_1_240">
<rect width="20" height="20" fill="white"/>
</clipPath>
</defs>
</svg>
