<svg width="49" height="53" viewBox="0 0 49 53" fill="none" xmlns="http://www.w3.org/2000/svg">
<path d="M27.96 46.0906C27.6084 46.6967 27.1037 47.1999 26.4965 47.5496C25.8892 47.8994 25.2008 48.0835 24.5 48.0835C23.7992 48.0835 23.1108 47.8994 22.5035 47.5496C21.8963 47.1999 21.3916 46.6967 21.04 46.0906M36.5 20.0906C36.5 16.908 35.2357 13.8557 32.9853 11.6053C30.7348 9.35486 27.6826 8.09058 24.5 8.09058C21.3174 8.09058 18.2652 9.35486 16.0147 11.6053C13.7643 13.8557 12.5 16.908 12.5 20.0906C12.5 34.0906 6.5 38.0906 6.5 38.0906H42.5C42.5 38.0906 36.5 34.0906 36.5 20.0906Z" stroke="#1565C0" stroke-linecap="round" stroke-linejoin="round"/>
<rect x="22" y="0.575928" width="19" height="20" rx="9.5" fill="#D32F2F"/>
<path d="M30.416 9.7771H31.1895C31.5684 9.7771 31.8809 9.7146 32.127 9.5896C32.377 9.46069 32.5625 9.28687 32.6836 9.06812C32.8086 8.84546 32.8711 8.59546 32.8711 8.31812C32.8711 7.98999 32.8164 7.7146 32.707 7.49194C32.5977 7.26929 32.4336 7.10132 32.2148 6.98804C31.9961 6.87476 31.7188 6.81812 31.3828 6.81812C31.0781 6.81812 30.8086 6.87866 30.5742 6.99976C30.3438 7.11694 30.1621 7.28491 30.0293 7.50366C29.9004 7.72241 29.8359 7.98022 29.8359 8.2771H28.752C28.752 7.84351 28.8613 7.44897 29.0801 7.09351C29.2988 6.73804 29.6055 6.45483 30 6.2439C30.3984 6.03296 30.8594 5.92749 31.3828 5.92749C31.8984 5.92749 32.3496 6.01929 32.7363 6.20288C33.123 6.38257 33.4238 6.6521 33.6387 7.01147C33.8535 7.36694 33.9609 7.8103 33.9609 8.34155C33.9609 8.5564 33.9102 8.78687 33.8086 9.03296C33.7109 9.27515 33.5566 9.50171 33.3457 9.71265C33.1387 9.92358 32.8691 10.0974 32.5371 10.2341C32.2051 10.3669 31.8066 10.4333 31.3418 10.4333H30.416V9.7771ZM30.416 10.6677V10.0173H31.3418C31.8848 10.0173 32.334 10.0818 32.6895 10.2107C33.0449 10.3396 33.3242 10.5115 33.5273 10.7263C33.7344 10.9412 33.8789 11.1775 33.9609 11.4353C34.0469 11.6892 34.0898 11.9431 34.0898 12.197C34.0898 12.5955 34.0215 12.949 33.8848 13.2576C33.752 13.5662 33.5625 13.8279 33.3164 14.0427C33.0742 14.2576 32.7891 14.4197 32.4609 14.5291C32.1328 14.6384 31.7754 14.6931 31.3887 14.6931C31.0176 14.6931 30.668 14.6404 30.3398 14.5349C30.0156 14.4294 29.7285 14.2771 29.4785 14.0779C29.2285 13.8748 29.0332 13.6267 28.8926 13.3337C28.752 13.0369 28.6816 12.699 28.6816 12.3201H29.7656C29.7656 12.6169 29.8301 12.8767 29.959 13.0994C30.0918 13.322 30.2793 13.4958 30.5215 13.6208C30.7676 13.7419 31.0566 13.8025 31.3887 13.8025C31.7207 13.8025 32.0059 13.7458 32.2441 13.6326C32.4863 13.5154 32.6719 13.3396 32.8008 13.1052C32.9336 12.8708 33 12.5759 33 12.2205C33 11.865 32.9258 11.574 32.7773 11.3474C32.6289 11.1169 32.418 10.947 32.1445 10.8376C31.875 10.7244 31.5566 10.6677 31.1895 10.6677H30.416Z" fill="white"/>
</svg>
