<svg width="43" height="46" viewBox="0 0 43 46" fill="none" xmlns="http://www.w3.org/2000/svg">
<g clip-path="url(#clip0_1_257)">
<g filter="url(#filter0_d_1_257)">
<path d="M28.2998 9.42543C28.8168 7.49342 28.5513 5.47481 27.5507 3.74248C26.3873 1.72849 24.423 0.457784 22.2901 0.102307C21.9012 0.0376757 21.5076 0.00305181 21.1118 0.000743534C21.0691 -0.000410605 21.0263 -0.000410605 20.9836 0.000743534C20.597 0.00305181 20.2092 0.0365214 19.8237 0.102307C18.965 0.245421 18.1179 0.542034 17.3216 1.00138C13.7449 3.06614 12.5157 7.65501 14.5793 11.2317C15.1945 12.2958 16.0324 13.1522 17.0019 13.7754L16.9949 13.7719L17.2881 13.9855L20.9836 16.1183L21.0968 16.1841L21.1118 16.1933L25.0705 18.4785L25.1847 18.5455L25.8056 18.9032L26.3839 19.2368V14.8395L24.8454 13.9508C26.5593 12.9502 27.785 11.3436 28.2998 9.42543ZM23.2538 10.5911L21.1325 11.878L21.091 11.8549L20.9836 11.7926L19.7787 11.0978L19.2651 10.8023L19.1059 10.7111C19.0805 10.695 19.0551 10.68 19.0297 10.6638C18.5634 10.3626 18.1572 9.9552 17.8502 9.44968C16.7641 7.66076 17.34 5.32826 19.1347 4.23874C19.7152 3.88673 20.3512 3.70783 20.9836 3.68705C21.0263 3.68475 21.0691 3.68475 21.1118 3.68475C22.3917 3.68592 23.6382 4.33222 24.3503 5.50368C25.3971 7.22796 24.8997 9.45777 23.2538 10.5911Z" fill="#006FFD"/>
</g>
<g filter="url(#filter1_d_1_257)">
<path d="M40.6323 26.391C39.2473 23.9916 36.7255 22.6493 34.1356 22.6493C33.1064 22.6493 32.0663 22.8617 31.083 23.3037L31.0945 23.2945L30.4563 23.5922L26.6477 25.7909L25.9921 26.1694L25.1911 26.6322L25.0757 26.698L21.3594 28.8436L25.1692 31.0434L26.6603 30.1824C26.6661 31.4415 26.9881 32.7146 27.661 33.8802C29.0471 36.2796 31.5701 37.6231 34.1599 37.6231C34.7115 37.6231 35.2667 37.5621 35.8151 37.4374C35.8635 37.427 35.9132 37.4153 35.9615 37.4017C36.6229 37.2377 37.2726 36.978 37.8914 36.6215C38.646 36.1861 39.3073 35.6335 39.8567 34.9884C40.434 34.3095 40.8875 33.5283 41.1934 32.6741C41.2638 32.478 41.3271 32.2771 41.3814 32.074C41.8986 30.142 41.633 28.1234 40.6323 26.391ZM35.9869 33.475C34.1508 34.4932 31.8401 33.8364 30.8256 32.0059C30.5383 31.4888 30.3859 30.9337 30.3559 30.3797C30.3547 30.3486 30.3548 30.3197 30.3536 30.2897V30.1062L30.3513 29.513L30.3478 28.547L30.3455 27.9987V27.9514L30.8476 27.6733L32.5153 26.7488C34.3158 25.8809 36.4982 26.556 37.4758 28.3196C38.4901 30.15 37.8232 32.4572 35.9869 33.475Z" fill="#006FFD"/>
</g>
<g filter="url(#filter2_d_1_257)">
<path d="M27.5509 33.941C27.0188 33.0199 26.3183 32.2549 25.5116 31.6616L24.9045 31.1954L21.1108 29.006L21.0958 28.9967L20.9827 28.9309L17.1394 26.7127L17.061 26.6665L16.9455 26.6007L15.8098 25.9452V30.3425L17.3079 31.208C13.7416 33.2764 12.5183 37.8582 14.5796 41.4303C15.7452 43.4488 17.7153 44.7196 19.854 45.0728C20.2256 45.1339 20.603 45.1673 20.9827 45.1718C21.015 45.1718 21.0462 45.1718 21.0785 45.1718H21.1108C21.5055 45.1696 21.9025 45.1374 22.2961 45.0715C23.1583 44.9296 24.01 44.6319 24.8098 44.1702C26.5422 43.1696 27.7817 41.555 28.2999 39.6228C28.817 37.691 28.5516 35.6722 27.5509 33.94V33.941ZM24.3493 39.5975C24.2605 39.7439 24.1635 39.8826 24.0585 40.0118C24.0066 40.0764 23.9523 40.1387 23.8958 40.2001C23.875 40.2231 23.8531 40.2462 23.8323 40.2679C23.8254 40.2751 23.8184 40.2819 23.8104 40.2887C23.7815 40.3176 23.7526 40.3465 23.7226 40.3754C23.6638 40.4309 23.6038 40.4852 23.5414 40.5371C23.4791 40.5891 23.4145 40.6384 23.3498 40.6858C23.2194 40.7816 23.0833 40.8683 22.9424 40.9455C22.8928 40.9731 22.842 40.9985 22.7912 41.0241C22.7855 41.0274 22.7797 41.0309 22.7728 41.0332C22.7232 41.0576 22.6724 41.0806 22.6216 41.1024C22.6216 41.1024 22.6216 41.1024 22.6193 41.1037C22.5662 41.1267 22.512 41.1488 22.4588 41.1683C22.4565 41.1683 22.4554 41.1705 22.4531 41.1705C22.3977 41.1913 22.3423 41.2098 22.2857 41.2283C22.2684 41.2342 22.2522 41.2397 22.2349 41.2446C22.2142 41.2524 22.1922 41.2582 22.1703 41.2641C22.1322 41.2767 22.0941 41.2871 22.0549 41.2965C21.9776 41.3147 21.9014 41.3322 21.8241 41.3472C21.7929 41.353 21.7618 41.3589 21.7306 41.3634C21.6844 41.3725 21.6383 41.3796 21.5909 41.3842C21.5586 41.3887 21.5263 41.391 21.4951 41.3946C21.4721 41.3968 21.449 41.4004 21.4247 41.4014C21.3994 41.405 21.374 41.4059 21.3486 41.4072C21.3082 41.4105 21.2689 41.4118 21.2285 41.4131C21.1893 41.4141 21.1501 41.4154 21.1108 41.4154C21.0681 41.4154 21.0254 41.4154 20.9827 41.4131C20.9423 41.4118 20.9031 41.4095 20.8638 41.4072C20.8246 41.405 20.7854 41.4014 20.7449 41.3978C20.7057 41.3946 20.6665 41.39 20.6272 41.3842C20.6019 41.3819 20.5776 41.3783 20.5534 41.3738C20.2752 41.3332 19.9994 41.2618 19.7305 41.1556C19.697 41.143 19.6635 41.1303 19.6301 41.115C19.6162 41.1095 19.6023 41.1037 19.5873 41.0968C19.5539 41.0829 19.5216 41.0679 19.4881 41.0517C19.3681 40.9952 19.2492 40.9316 19.1338 40.8611C17.3391 39.7718 16.7632 37.4394 17.8492 35.6514C18.1562 35.1449 18.5625 34.7374 19.0287 34.4374C19.0541 34.4212 19.0795 34.405 19.1049 34.39L19.2642 34.2978L19.7778 34.0033L20.4576 33.6111L20.9827 33.3085L21.09 33.2462L21.1108 33.2348L21.1316 33.2222L21.8079 33.6329L23.2529 34.5102C24.8987 35.6433 25.3961 37.8731 24.3493 39.5975Z" fill="#006FFD"/>
</g>
<g filter="url(#filter3_d_1_257)">
<path d="M11.7415 21.885V23.659C10.6163 23.008 9.33518 22.6595 8.03561 22.6491H7.89366C6.6495 22.6618 5.39496 22.9849 4.24311 23.6497C1.01614 25.5125 -0.300731 29.4308 0.99075 32.8066C1.12925 33.1725 1.30006 33.5313 1.50088 33.88C1.7017 34.2274 1.9256 34.5518 2.17259 34.854V34.8563C2.64117 35.4323 3.18246 35.9264 3.77801 36.3268C3.82184 36.357 3.86687 36.3868 3.91187 36.4157C3.95687 36.4446 4.0019 36.4735 4.04807 36.5021C4.14733 36.5644 4.24772 36.6235 4.34931 36.6787C4.35505 36.6823 4.362 36.6858 4.36775 36.6891C4.422 36.7193 4.47739 36.7492 4.53165 36.7768C4.53281 36.7768 4.53281 36.7781 4.53395 36.7781C4.59742 36.8115 4.66207 36.844 4.72671 36.8751C5.18489 37.0956 5.66272 37.2686 6.1532 37.392C6.20168 37.4047 6.25015 37.4173 6.29863 37.4277C6.85492 37.557 7.42509 37.6229 7.99869 37.6229C8.31606 37.6229 8.6346 37.6034 8.952 37.5618C8.997 37.556 9.04203 37.5501 9.08703 37.542L9.10781 37.5388C9.1609 37.5316 9.21398 37.5225 9.26824 37.5131C10.1131 37.3677 10.9452 37.0735 11.73 36.6212C13.4624 35.6206 14.7019 34.0057 15.2201 32.0738C15.3148 31.7218 15.3817 31.3674 15.4244 31.012L15.549 30.1891V19.6864L11.7404 21.885H11.7415ZM6.1509 33.4748C4.31467 32.457 3.64642 30.1498 4.6609 28.3194C5.63846 26.5558 7.8221 25.8807 9.62255 26.7486L11.7923 27.9512V27.9985L11.7854 29.5128V30.2895C11.7831 30.3195 11.7819 30.3483 11.7808 30.3795C11.7508 30.9335 11.5984 31.4886 11.3122 32.0057C10.2977 33.8362 7.98713 34.493 6.1509 33.4748Z" fill="#006FFD"/>
</g>
<g filter="url(#filter4_d_1_257)">
<path d="M17.0288 14.1365L15.5689 14.979L15.48 15.0309C15.4811 13.7302 15.1407 12.4456 14.4724 11.2892C12.7874 8.37039 9.41961 7.01428 6.29419 7.73792H6.29305C6.24571 7.74948 6.19724 7.761 6.14993 7.77487H6.14877C5.49552 7.93873 4.855 8.19496 4.24328 8.54811C3.42963 9.01785 2.73714 9.61802 2.17854 10.3082C1.67649 10.9245 1.28177 11.6135 1.00247 12.3441C0.218811 14.3823 0.3273 16.7437 1.50106 18.7784C2.88718 21.1779 5.41013 22.5213 8 22.5213C8.94409 22.5213 9.89857 22.3412 10.8092 21.9708L10.8288 21.9627C10.8288 21.9627 10.8311 21.9627 10.8334 21.9627L11.7417 21.5876L12.5104 21.1444L15.5504 19.389L16.2787 18.9689L16.9527 18.5799L17.0681 18.513L20.8364 16.3363L17.0288 14.1376V14.1365ZM4.20175 15.0575C4.20175 12.9581 5.89601 11.2557 7.98847 11.2557C10.0809 11.2557 11.654 12.838 11.7683 14.8324V17.315L11.7267 17.3369L10.3983 18.0663L9.8801 18.3525L9.71854 18.4403C9.69198 18.4541 9.66659 18.468 9.6389 18.4818C9.13916 18.7242 8.58055 18.8604 7.98847 18.8604C5.89601 18.8604 4.20175 17.1568 4.20175 15.0575Z" fill="#006FFD"/>
</g>
<g filter="url(#filter5_d_1_257)">
<path d="M41.1935 12.5042C41.0435 12.0887 40.8555 11.6847 40.6305 11.2946C40.4055 10.9057 40.1513 10.5445 39.8698 10.2121C38.8344 8.98176 37.4519 8.14961 35.9539 7.77685C35.9055 7.76416 35.8568 7.7526 35.8084 7.74107C34.0312 7.33481 32.1013 7.5714 30.4013 8.55357C28.1299 9.86468 26.8073 12.1926 26.6723 14.6336L26.6445 14.9902V19.3875H26.6457V25.494L30.4544 23.2954V21.5538C31.5358 22.1644 32.7557 22.4979 33.9964 22.5244C34.0497 22.5244 34.1039 22.5268 34.1581 22.5268C34.2123 22.5268 34.263 22.5268 34.3162 22.5244C35.5338 22.499 36.7617 22.1759 37.8893 21.5249C39.6217 20.5243 40.8614 18.9097 41.3795 16.9776C41.7799 15.4807 41.7107 13.9319 41.1935 12.5042ZM34.1464 18.8612C33.5555 18.8612 32.9958 18.725 32.4972 18.4826C32.4695 18.4688 32.4429 18.4549 32.4164 18.4411L32.256 18.3534L31.7366 18.0671L30.4093 17.3377L30.3678 17.3158V14.8333C30.4821 12.8389 32.1302 11.2566 34.1464 11.2566C36.1627 11.2566 37.9344 12.9589 37.9344 15.0583C37.9344 17.1577 36.2389 18.8612 34.1464 18.8612Z" fill="#006FFD"/>
</g>
</g>
<defs>
<filter id="filter0_d_1_257" x="7.03838" y="-6.53987" width="28.059" height="32.3164" filterUnits="userSpaceOnUse" color-interpolation-filters="sRGB">
<feFlood flood-opacity="0" result="BackgroundImageFix"/>
<feColorMatrix in="SourceAlpha" type="matrix" values="0 0 0 0 0 0 0 0 0 0 0 0 0 0 0 0 0 0 127 0" result="hardAlpha"/>
<feOffset/>
<feGaussianBlur stdDeviation="3.26987"/>
<feComposite in2="hardAlpha" operator="out"/>
<feColorMatrix type="matrix" values="0 0 0 0 0 0 0 0 0 0 0 0 0 0 0 0 0 0 0.25 0"/>
<feBlend mode="normal" in2="BackgroundImageFix" result="effect1_dropShadow_1_257"/>
<feBlend mode="normal" in="SourceGraphic" in2="effect1_dropShadow_1_257" result="shape"/>
</filter>
<filter id="filter1_d_1_257" x="14.8196" y="16.1095" width="33.3593" height="28.0533" filterUnits="userSpaceOnUse" color-interpolation-filters="sRGB">
<feFlood flood-opacity="0" result="BackgroundImageFix"/>
<feColorMatrix in="SourceAlpha" type="matrix" values="0 0 0 0 0 0 0 0 0 0 0 0 0 0 0 0 0 0 127 0" result="hardAlpha"/>
<feOffset/>
<feGaussianBlur stdDeviation="3.26987"/>
<feComposite in2="hardAlpha" operator="out"/>
<feColorMatrix type="matrix" values="0 0 0 0 0 0 0 0 0 0 0 0 0 0 0 0 0 0 0.25 0"/>
<feBlend mode="normal" in2="BackgroundImageFix" result="effect1_dropShadow_1_257"/>
<feBlend mode="normal" in="SourceGraphic" in2="effect1_dropShadow_1_257" result="shape"/>
</filter>
<filter id="filter2_d_1_257" x="7.03838" y="19.4054" width="28.0595" height="32.3062" filterUnits="userSpaceOnUse" color-interpolation-filters="sRGB">
<feFlood flood-opacity="0" result="BackgroundImageFix"/>
<feColorMatrix in="SourceAlpha" type="matrix" values="0 0 0 0 0 0 0 0 0 0 0 0 0 0 0 0 0 0 127 0" result="hardAlpha"/>
<feOffset/>
<feGaussianBlur stdDeviation="3.26987"/>
<feComposite in2="hardAlpha" operator="out"/>
<feColorMatrix type="matrix" values="0 0 0 0 0 0 0 0 0 0 0 0 0 0 0 0 0 0 0.25 0"/>
<feBlend mode="normal" in2="BackgroundImageFix" result="effect1_dropShadow_1_257"/>
<feBlend mode="normal" in="SourceGraphic" in2="effect1_dropShadow_1_257" result="shape"/>
</filter>
<filter id="filter3_d_1_257" x="-6.03975" y="13.1467" width="28.1283" height="31.0159" filterUnits="userSpaceOnUse" color-interpolation-filters="sRGB">
<feFlood flood-opacity="0" result="BackgroundImageFix"/>
<feColorMatrix in="SourceAlpha" type="matrix" values="0 0 0 0 0 0 0 0 0 0 0 0 0 0 0 0 0 0 127 0" result="hardAlpha"/>
<feOffset/>
<feGaussianBlur stdDeviation="3.26987"/>
<feComposite in2="hardAlpha" operator="out"/>
<feColorMatrix type="matrix" values="0 0 0 0 0 0 0 0 0 0 0 0 0 0 0 0 0 0 0.25 0"/>
<feBlend mode="normal" in2="BackgroundImageFix" result="effect1_dropShadow_1_257"/>
<feBlend mode="normal" in="SourceGraphic" in2="effect1_dropShadow_1_257" result="shape"/>
</filter>
<filter id="filter4_d_1_257" x="-6.03975" y="1.00652" width="33.4159" height="28.0545" filterUnits="userSpaceOnUse" color-interpolation-filters="sRGB">
<feFlood flood-opacity="0" result="BackgroundImageFix"/>
<feColorMatrix in="SourceAlpha" type="matrix" values="0 0 0 0 0 0 0 0 0 0 0 0 0 0 0 0 0 0 127 0" result="hardAlpha"/>
<feOffset/>
<feGaussianBlur stdDeviation="3.26987"/>
<feComposite in2="hardAlpha" operator="out"/>
<feColorMatrix type="matrix" values="0 0 0 0 0 0 0 0 0 0 0 0 0 0 0 0 0 0 0.25 0"/>
<feBlend mode="normal" in2="BackgroundImageFix" result="effect1_dropShadow_1_257"/>
<feBlend mode="normal" in="SourceGraphic" in2="effect1_dropShadow_1_257" result="shape"/>
</filter>
<filter id="filter5_d_1_257" x="20.1048" y="1.01189" width="28.0722" height="31.0219" filterUnits="userSpaceOnUse" color-interpolation-filters="sRGB">
<feFlood flood-opacity="0" result="BackgroundImageFix"/>
<feColorMatrix in="SourceAlpha" type="matrix" values="0 0 0 0 0 0 0 0 0 0 0 0 0 0 0 0 0 0 127 0" result="hardAlpha"/>
<feOffset/>
<feGaussianBlur stdDeviation="3.26987"/>
<feComposite in2="hardAlpha" operator="out"/>
<feColorMatrix type="matrix" values="0 0 0 0 0 0 0 0 0 0 0 0 0 0 0 0 0 0 0.25 0"/>
<feBlend mode="normal" in2="BackgroundImageFix" result="effect1_dropShadow_1_257"/>
<feBlend mode="normal" in="SourceGraphic" in2="effect1_dropShadow_1_257" result="shape"/>
</filter>
<clipPath id="clip0_1_257">
<rect width="42" height="46" fill="white" transform="translate(0.5 -0.00012207)"/>
</clipPath>
</defs>
</svg>
