<svg width="49" height="50" viewBox="0 0 49 50" fill="none" xmlns="http://www.w3.org/2000/svg">
<path d="M33.8164 7.76789V8.11575L34.1628 8.14782C36.8479 8.39644 38.8004 9.31594 40.132 10.7296C41.4661 12.1459 42.2141 14.0974 42.4132 16.4768L42.4131 16.4768L42.414 16.4856C42.4489 16.8115 42.1587 17.1455 41.7726 17.1455H7.22756C6.86685 17.1455 6.56388 16.8334 6.58722 16.4737C6.78672 14.0957 7.53457 12.1453 8.86811 10.7296C10.1998 9.31594 12.1522 8.39644 14.8373 8.14782L15.1837 8.11575V7.76789V4.58289C15.1837 3.95653 15.707 3.43319 16.3334 3.43319C16.9597 3.43319 17.4831 3.95653 17.4831 4.58289V7.64539V8.02694H17.8646H31.1355H31.517V7.64539V4.58289C31.517 3.95653 32.0404 3.43319 32.6667 3.43319C33.2931 3.43319 33.8164 3.95653 33.8164 4.58289V7.76789Z" stroke="#1565C0" stroke-width="0.763115"/>
<path d="M19.0588 37.9637L19.07 37.9536L19.0805 37.9425C19.5106 37.4886 19.7771 36.8654 19.7771 36.2305C19.7771 35.5956 19.5106 34.9725 19.0805 34.5185L19.07 34.5075L19.0588 34.4973C18.8237 34.2858 18.5627 34.1192 18.2765 34C17.6926 33.7567 17.0153 33.7567 16.4313 34C16.1452 34.1192 15.8842 34.2858 15.6491 34.4973L15.6378 34.5075L15.6273 34.5185C15.1973 34.9725 14.9307 35.5956 14.9307 36.2305C14.9307 36.8654 15.1973 37.4886 15.6273 37.9425L15.6378 37.9536L15.6491 37.9637C15.8842 38.1753 16.1452 38.3418 16.4313 38.4611C16.7154 38.5794 17.0306 38.6538 17.3539 38.6538C17.6772 38.6538 17.9925 38.5794 18.2765 38.4611C18.5627 38.3418 18.8237 38.1753 19.0588 37.9637ZM19.5845 30.0073L19.2323 29.8605L19.5845 30.0073C19.7028 29.7233 19.7771 29.408 19.7771 29.0847C19.7771 28.7614 19.7028 28.4461 19.5845 28.1621L19.2323 28.3089L19.5845 28.1621C19.4652 27.876 19.2987 27.6149 19.0871 27.3799L19.0737 27.3649L19.0588 27.3515C18.8237 27.14 18.5627 26.9734 18.2765 26.8542C17.6926 26.6109 17.0153 26.6109 16.4313 26.8542C16.1452 26.9734 15.8842 27.14 15.6491 27.3515L15.6342 27.3649L15.6207 27.3799C15.4092 27.6149 15.2426 27.876 15.1234 28.1621C15.005 28.4461 14.9307 28.7614 14.9307 29.0847C14.9307 29.408 15.005 29.7233 15.1234 30.0073C15.2426 30.2935 15.4092 30.5545 15.6207 30.7895L15.6342 30.8045L15.6491 30.8179C15.8842 31.0295 16.1452 31.196 16.4313 31.3152C16.7154 31.4336 17.0306 31.5079 17.3539 31.5079C17.6772 31.5079 17.9925 31.4336 18.2765 31.3152C18.5627 31.196 18.8237 31.0295 19.0588 30.8179L19.0737 30.8045L19.0871 30.7895C19.2987 30.5545 19.4652 30.2935 19.5845 30.0073ZM26.2046 30.8179L26.2159 30.8077L26.2263 30.7967C26.6564 30.3427 26.923 29.7196 26.923 29.0847C26.923 28.4498 26.6564 27.8267 26.2263 27.3727L26.2159 27.3617L26.2046 27.3515C25.9712 27.1415 25.7122 26.9758 25.4284 26.8567C24.8409 26.5896 24.1586 26.5896 23.5711 26.8567C23.2873 26.9758 23.0283 27.1415 22.7949 27.3515L22.7836 27.3617L22.7732 27.3727C22.3431 27.8267 22.0765 28.4498 22.0765 29.0847C22.0765 29.7196 22.3431 30.3427 22.7732 30.7967L22.7836 30.8077L22.7949 30.8179C23.03 31.0295 23.291 31.196 23.5772 31.3152C23.8612 31.4336 24.1765 31.5079 24.4998 31.5079C24.8231 31.5079 25.1383 31.4336 25.4223 31.3152C25.7085 31.196 25.9695 31.0295 26.2046 30.8179ZM8.16642 20.9729H40.8331C41.7453 20.9729 42.4932 21.7208 42.4932 22.633V35.2097C42.4932 38.2137 41.7421 40.6588 40.1707 42.3511C38.604 44.0383 36.1666 45.0365 32.6664 45.0365H16.3331C12.8329 45.0365 10.3956 44.0383 8.82884 42.3511C7.25737 40.6588 6.50631 38.2137 6.50631 35.2097V22.633C6.50631 21.7208 7.25423 20.9729 8.16642 20.9729Z" stroke="#1565C0" stroke-width="0.763115"/>
<g clip-path="url(#clip0_1_671)">
<path d="M32.7326 41.3325V42.0825H33.4826H35.1159H35.8659V41.3325V38.8159H38.3826H39.1326V38.0659V36.4325V35.6825H38.3826H35.8659V33.1659V32.4159H35.1159H33.4826H32.7326V33.1659V35.6825H30.2159H29.4659V36.4325V38.0659V38.8159H30.2159H32.7326V41.3325ZM30.8131 45.4698L30.8131 45.4699L30.8211 45.4733C31.9117 45.9364 33.0736 46.1659 34.2992 46.1659C35.5249 46.1659 36.6868 45.9364 37.7774 45.4733L37.7774 45.4733L37.7853 45.4698C38.8606 44.9985 39.8036 44.3613 40.6075 43.5574C41.4122 42.7527 42.0433 41.8084 42.5012 40.7313C42.9789 39.64 43.2159 38.4767 43.2159 37.2492C43.2159 36.0217 42.9789 34.8584 42.5012 33.767C42.0433 32.69 41.4122 31.7456 40.6075 30.9409C39.8028 30.1363 38.8584 29.5052 37.7814 29.0472C36.6901 28.5695 35.5267 28.3325 34.2992 28.3325C33.0717 28.3325 31.9084 28.5695 30.8171 29.0472C29.74 29.5052 28.7957 30.1362 27.991 30.9409C27.1871 31.7448 26.5499 32.6878 26.0786 33.7631L26.0785 33.7631L26.0752 33.771C25.612 34.8617 25.3826 36.0235 25.3826 37.2492C25.3826 38.4749 25.612 39.6367 26.0752 40.7273L26.0751 40.7274L26.0786 40.7353C26.5499 41.8106 27.1871 42.7536 27.991 43.5574C28.7949 44.3613 29.7378 44.9985 30.8131 45.4698ZM38.4035 41.3534C37.2813 42.4757 35.9284 43.0325 34.2992 43.0325C32.6701 43.0325 31.3172 42.4757 30.195 41.3534C29.0727 40.2312 28.5159 38.8784 28.5159 37.2492C28.5159 35.62 29.0727 34.2672 30.195 33.1449C31.3172 32.0227 32.6701 31.4659 34.2992 31.4659C35.9284 31.4659 37.2813 32.0227 38.4035 33.1449C39.5257 34.2672 40.0826 35.62 40.0826 37.2492C40.0826 38.8784 39.5257 40.2312 38.4035 41.3534Z" fill="#1565C0" stroke="#F9F9FC" stroke-width="1.5"/>
</g>
<defs>
<clipPath id="clip0_1_671">
<rect width="19.6" height="19.6" fill="white" transform="translate(24.499 27.4492)"/>
</clipPath>
</defs>
</svg>
