<svg width="33" height="32" viewBox="0 0 33 32" fill="none" xmlns="http://www.w3.org/2000/svg">
<g clip-path="url(#clip0_1_279)">
<path d="M20.9064 18.6667H19.8464L19.4797 18.3C20.7864 16.7867 21.5731 14.82 21.5731 12.6667C21.5731 7.88 17.6931 4 12.9064 4C8.11975 4 4.23975 7.88 4.23975 12.6667C4.23975 17.4533 8.11975 21.3333 12.9064 21.3333C15.0597 21.3333 17.0264 20.5467 18.5397 19.2467L18.9064 19.6133V20.6667L25.5731 27.32L27.5597 25.3333L20.9064 18.6667ZM12.9064 18.6667C9.59308 18.6667 6.90641 15.98 6.90641 12.6667C6.90641 9.35333 9.59308 6.66667 12.9064 6.66667C16.2197 6.66667 18.9064 9.35333 18.9064 12.6667C18.9064 15.98 16.2197 18.6667 12.9064 18.6667Z" fill="#9E9E9E"/>
</g>
<defs>
<clipPath id="clip0_1_279">
<rect width="32" height="32" fill="white" transform="translate(0.239746)"/>
</clipPath>
</defs>
</svg>
