<svg width="22" height="20" viewBox="0 0 22 20" fill="none" xmlns="http://www.w3.org/2000/svg">
<g opacity="0.5">
<path d="M15.1668 17.5V15.8333C15.1668 13.9924 13.6744 12.5 11.8335 12.5H5.16683C3.32588 12.5 1.8335 13.9924 1.8335 15.8333V17.5" stroke="white" stroke-width="2" stroke-linecap="round" stroke-linejoin="round"/>
<path fill-rule="evenodd" clip-rule="evenodd" d="M8.49984 9.16667C10.3408 9.16667 11.8332 7.67428 11.8332 5.83333C11.8332 3.99238 10.3408 2.5 8.49984 2.5C6.65889 2.5 5.1665 3.99238 5.1665 5.83333C5.1665 7.67428 6.65889 9.16667 8.49984 9.16667Z" stroke="white" stroke-width="2" stroke-linecap="round" stroke-linejoin="round"/>
<path d="M20.1665 17.5V15.8333C20.1654 14.3143 19.1373 12.9881 17.6665 12.6083" stroke="white" stroke-width="2" stroke-linecap="round" stroke-linejoin="round"/>
<path d="M14.3335 2.60834C15.8084 2.98598 16.84 4.315 16.84 5.8375C16.84 7.36001 15.8084 8.68903 14.3335 9.06667" stroke="white" stroke-width="2" stroke-linecap="round" stroke-linejoin="round"/>
</g>
</svg>
