<svg width="20" height="20" viewBox="0 0 20 20" fill="none" xmlns="http://www.w3.org/2000/svg">
<g opacity="0.5">
<path d="M19.1668 6.66667C19.1668 7.58333 18.4168 8.33333 17.5002 8.33333C17.3502 8.33333 17.2085 8.31667 17.0752 8.275L14.1085 11.2333C14.1502 11.3667 14.1668 11.5167 14.1668 11.6667C14.1668 12.5833 13.4168 13.3333 12.5002 13.3333C11.5835 13.3333 10.8335 12.5833 10.8335 11.6667C10.8335 11.5167 10.8502 11.3667 10.8918 11.2333L8.76683 9.10833C8.6335 9.15 8.4835 9.16667 8.3335 9.16667C8.1835 9.16667 8.03349 9.15 7.90016 9.10833L4.1085 12.9083C4.15016 13.0417 4.16683 13.1833 4.16683 13.3333C4.16683 14.25 3.41683 15 2.50016 15C1.5835 15 0.833496 14.25 0.833496 13.3333C0.833496 12.4167 1.5835 11.6667 2.50016 11.6667C2.65016 11.6667 2.79183 11.6833 2.92516 11.725L6.72516 7.93333C6.6835 7.8 6.66683 7.65 6.66683 7.5C6.66683 6.58333 7.41683 5.83333 8.3335 5.83333C9.25016 5.83333 10.0002 6.58333 10.0002 7.5C10.0002 7.65 9.9835 7.8 9.94183 7.93333L12.0668 10.0583C12.2002 10.0167 12.3502 10 12.5002 10C12.6502 10 12.8002 10.0167 12.9335 10.0583L15.8918 7.09167C15.8502 6.95833 15.8335 6.81667 15.8335 6.66667C15.8335 5.75 16.5835 5 17.5002 5C18.4168 5 19.1668 5.75 19.1668 6.66667Z" fill="white"/>
</g>
</svg>
